<?xml version="1.0" encoding="UTF-8" standalone="no"?>
<!DOCTYPE svg PUBLIC "-//W3C//DTD SVG 1.1//EN"
 "http://www.w3.org/Graphics/SVG/1.1/DTD/svg11.dtd">
<!-- Generated by graphviz version 2.26.3 (20100126.1600)
 -->
<!-- Title: controllers_diagram Pages: 1 -->
<svg width="524pt" height="257pt"
 viewBox="0.00 0.00 524.00 257.00" xmlns="http://www.w3.org/2000/svg" xmlns:xlink="http://www.w3.org/1999/xlink">
<g id="graph1" class="graph" transform="scale(1 1) rotate(0) translate(4 253)">
<title>controllers_diagram</title>
<polygon fill="white" stroke="white" points="-4,5 -4,-253 521,-253 521,5 -4,5"/>
<!-- _diagram_info -->
<g id="node1" class="node"><title>_diagram_info</title>
<text text-anchor="start" x="273" y="-232.3" font-family="Times Roman,serif" font-size="13.00">Controllers diagram</text>
<text text-anchor="start" x="273" y="-215.3" font-family="Times Roman,serif" font-size="13.00">Date: Aug 31 2014 &#45; 09:42</text>
<text text-anchor="start" x="273" y="-198.3" font-family="Times Roman,serif" font-size="13.00">Migration version: 20140831013149</text>
<text text-anchor="start" x="273" y="-181.3" font-family="Times Roman,serif" font-size="13.00">Generated by RailRoady 1.1.2</text>
<text text-anchor="start" x="273" y="-164.3" font-family="Times Roman,serif" font-size="13.00">http://railroady.prestonlee.com</text>
</g>
<!-- ApplicationController -->
<g id="node2" class="node"><title>ApplicationController</title>
<polyline fill="none" stroke="black" points="13,-11.5305 150,-11.5305 "/>
<path fill="none" stroke="black" d="M150,-11.5305C156,-11.5305 162,-17.5305 162,-23.5305"/>
<polyline fill="none" stroke="black" points="162,-23.5305 162,-99.5305 "/>
<path fill="none" stroke="black" d="M162,-99.5305C162,-105.53 156,-111.53 150,-111.53"/>
<polyline fill="none" stroke="black" points="150,-111.53 13,-111.53 "/>
<path fill="none" stroke="black" d="M13,-111.53C7,-111.53 1,-105.53 1,-99.5305"/>
<polyline fill="none" stroke="black" points="1,-99.5305 1,-23.5305 "/>
<path fill="none" stroke="black" d="M1,-23.5305C1,-17.5305 7,-11.5305 13,-11.5305"/>
<text text-anchor="middle" x="81.5" y="-94.9305" font-family="Times Roman,serif" font-size="14.00">ApplicationController</text>
<polyline fill="none" stroke="black" points="1,-85.5305 162,-85.5305 "/>
<polyline fill="none" stroke="black" points="1,-61.5305 162,-61.5305 "/>
<polyline fill="none" stroke="black" points="1,-37.5305 162,-37.5305 "/>
<text text-anchor="start" x="9" y="-20.9305" font-family="Times Roman,serif" font-size="14.00">_layout</text>
</g>
<!-- SearchPagesController -->
<g id="node3" class="node"><title>SearchPagesController</title>
<polyline fill="none" stroke="black" points="186.506,-1.5 335.506,-1.5 "/>
<path fill="none" stroke="black" d="M335.506,-1.5C341.506,-1.5 347.506,-7.5 347.506,-13.5"/>
<polyline fill="none" stroke="black" points="347.506,-13.5 347.506,-109.5 "/>
<path fill="none" stroke="black" d="M347.506,-109.5C347.506,-115.5 341.506,-121.5 335.506,-121.5"/>
<polyline fill="none" stroke="black" points="335.506,-121.5 186.506,-121.5 "/>
<path fill="none" stroke="black" d="M186.506,-121.5C180.506,-121.5 174.506,-115.5 174.506,-109.5"/>
<polyline fill="none" stroke="black" points="174.506,-109.5 174.506,-13.5 "/>
<path fill="none" stroke="black" d="M174.506,-13.5C174.506,-7.5 180.506,-1.5 186.506,-1.5"/>
<text text-anchor="middle" x="261.006" y="-104.9" font-family="Times Roman,serif" font-size="14.00">SearchPagesController</text>
<polyline fill="none" stroke="black" points="174.506,-95.5 347.506,-95.5 "/>
<text text-anchor="start" x="182.506" y="-78.9" font-family="Times Roman,serif" font-size="14.00">search</text>
<text text-anchor="start" x="182.506" y="-60.9" font-family="Times Roman,serif" font-size="14.00">search_result</text>
<polyline fill="none" stroke="black" points="174.506,-51.5 347.506,-51.5 "/>
<polyline fill="none" stroke="black" points="174.506,-27.5 347.506,-27.5 "/>
<text text-anchor="start" x="182.506" y="-10.9" font-family="Times Roman,serif" font-size="14.00">_layout</text>
</g>
<!-- ApplicationController&#45;&gt;SearchPagesController -->
<g id="edge2" class="edge"><title>ApplicationController&#45;&gt;SearchPagesController</title>
<path fill="none" stroke="black" d="M162.064,-61.5168C166.165,-61.5161 170.292,-61.5154 174.41,-61.5147"/>
</g>
</g>
</svg>
