<?xml version="1.0" encoding="UTF-8" standalone="no"?>
<!DOCTYPE svg PUBLIC "-//W3C//DTD SVG 1.1//EN"
 "http://www.w3.org/Graphics/SVG/1.1/DTD/svg11.dtd">
<!-- Generated by graphviz version 2.26.3 (20100126.1600)
 -->
<!-- Title: models_diagram Pages: 1 -->
<svg width="504pt" height="324pt"
 viewBox="0.00 0.00 504.00 324.00" xmlns="http://www.w3.org/2000/svg" xmlns:xlink="http://www.w3.org/1999/xlink">
<g id="graph1" class="graph" transform="scale(1 1) rotate(0) translate(4 320)">
<title>models_diagram</title>
<polygon fill="white" stroke="white" points="-4,5 -4,-320 501,-320 501,5 -4,5"/>
<!-- _diagram_info -->
<g id="node1" class="node"><title>_diagram_info</title>
<text text-anchor="start" x="8" y="-299.8" font-family="Times Roman,serif" font-size="13.00">Models diagram</text>
<text text-anchor="start" x="8" y="-282.8" font-family="Times Roman,serif" font-size="13.00">Date: Aug 31 2014 &#45; 09:42</text>
<text text-anchor="start" x="8" y="-265.8" font-family="Times Roman,serif" font-size="13.00">Migration version: 20140831013149</text>
<text text-anchor="start" x="8" y="-248.8" font-family="Times Roman,serif" font-size="13.00">Generated by RailRoady 1.1.2</text>
<text text-anchor="start" x="8" y="-231.8" font-family="Times Roman,serif" font-size="13.00">http://railroady.prestonlee.com</text>
</g>
<!-- Cost -->
<g id="node2" class="node"><title>Cost</title>
<ellipse fill="none" stroke="black" cx="346" cy="-19" rx="33.234" ry="18.3848"/>
<text text-anchor="middle" x="346" y="-15.4" font-family="Times Roman,serif" font-size="14.00">Cost</text>
</g>
<!-- Practice -->
<g id="node3" class="node"><title>Practice</title>
<ellipse fill="none" stroke="black" cx="372" cy="-167" rx="50.2046" ry="18.3848"/>
<text text-anchor="middle" x="372" y="-163.4" font-family="Times Roman,serif" font-size="14.00">Practice</text>
</g>
<!-- Practice&#45;&gt;Cost -->
<g id="edge4" class="edge"><title>Practice&#45;&gt;Cost</title>
<path fill="none" stroke="#facca4" d="M367.258,-140.006C362.654,-113.801 355.693,-74.1765 351.003,-47.4789"/>
<ellipse fill="none" stroke="#facca4" cx="368.015" cy="-144.316" rx="4.00001" ry="4.00001"/>
<polygon fill="#facca4" stroke="#facca4" points="350.997,-47.4413 353.698,-36.8135 350.131,-42.5167 349.266,-37.5921 349.266,-37.5921 349.266,-37.5921 350.131,-42.5167 344.834,-38.3708 350.997,-47.4413 350.997,-47.4413"/>
</g>
<!-- Procedure -->
<g id="node4" class="node"><title>Procedure</title>
<ellipse fill="none" stroke="black" cx="435" cy="-93" rx="60.8112" ry="18.3848"/>
<text text-anchor="middle" x="435" y="-89.4" font-family="Times Roman,serif" font-size="14.00">Procedure</text>
</g>
<!-- Practice&#45;&gt;Procedure -->
<g id="edge6" class="edge"><title>Practice&#45;&gt;Procedure</title>
<path fill="none" stroke="#e73411" d="M393.806,-141.386C400.065,-134.034 406.89,-126.018 413.152,-118.663"/>
<polygon fill="#e73411" stroke="#e73411" points="393.733,-141.472 383.824,-146.17 390.492,-145.279 387.251,-149.087 387.251,-149.087 387.251,-149.087 390.492,-145.279 390.677,-152.004 393.733,-141.472 393.733,-141.472"/>
<polygon fill="#e73411" stroke="#e73411" points="413.189,-118.619 423.098,-113.922 416.43,-114.812 419.672,-111.005 419.672,-111.005 419.672,-111.005 416.43,-114.812 416.245,-108.088 413.189,-118.619 413.189,-118.619"/>
</g>
<!-- Procedure&#45;&gt;Cost -->
<g id="edge10" class="edge"><title>Procedure&#45;&gt;Cost</title>
<path fill="none" stroke="#c9070c" d="M407.69,-70.2925C396.425,-60.9262 383.423,-50.116 372.269,-40.8419"/>
<ellipse fill="none" stroke="#c9070c" cx="410.833" cy="-72.9057" rx="4.00002" ry="4.00002"/>
<polygon fill="#c9070c" stroke="#c9070c" points="372.215,-40.7964 367.402,-30.9429 368.37,-37.5998 364.525,-34.4031 364.525,-34.4031 364.525,-34.4031 368.37,-37.5998 361.648,-37.8633 372.215,-40.7964 372.215,-40.7964"/>
</g>
<!-- ActiveRecord::Base -->
<g id="node5" class="node"><title>ActiveRecord::Base</title>
<ellipse fill="none" stroke="black" cx="372" cy="-269" rx="104.151" ry="18.3848"/>
<text text-anchor="middle" x="372" y="-265.4" font-family="Times Roman,serif" font-size="14.00">ActiveRecord::Base</text>
</g>
<!-- ActiveRecord::Base&#45;&gt;Cost -->
<g id="edge2" class="edge"><title>ActiveRecord::Base&#45;&gt;Cost</title>
<path fill="none" stroke="black" d="M353.893,-250.773C339.683,-235.095 321.01,-211.095 313,-186 296.104,-133.07 321.821,-67.8169 336.676,-36.8855"/>
</g>
<!-- ActiveRecord::Base&#45;&gt;Practice -->
<g id="edge8" class="edge"><title>ActiveRecord::Base&#45;&gt;Practice</title>
<path fill="none" stroke="black" d="M372,-250.292C372,-231.888 372,-203.953 372,-185.59"/>
</g>
<!-- ActiveRecord::Base&#45;&gt;Procedure -->
<g id="edge12" class="edge"><title>ActiveRecord::Base&#45;&gt;Procedure</title>
<path fill="none" stroke="black" d="M389.825,-250.68C403.868,-234.946 422.452,-210.917 431,-186 439.443,-161.389 438.848,-130.95 437.244,-111.748"/>
</g>
</g>
</svg>
