<?xml version="1.0" encoding="UTF-8" standalone="no"?>
<!DOCTYPE svg PUBLIC "-//W3C//DTD SVG 1.1//EN"
 "http://www.w3.org/Graphics/SVG/1.1/DTD/svg11.dtd">
<!-- Generated by graphviz version 2.26.3 (20100126.1600)
 -->
<!-- Title: models_diagram Pages: 1 -->
<svg width="536pt" height="660pt"
 viewBox="0.00 0.00 536.00 660.00" xmlns="http://www.w3.org/2000/svg" xmlns:xlink="http://www.w3.org/1999/xlink">
<g id="graph1" class="graph" transform="scale(1 1) rotate(0) translate(4 656)">
<title>models_diagram</title>
<polygon fill="white" stroke="white" points="-4,5 -4,-656 533,-656 533,5 -4,5"/>
<!-- _diagram_info -->
<g id="node1" class="node"><title>_diagram_info</title>
<text text-anchor="start" x="8" y="-635.8" font-family="Times Roman,serif" font-size="13.00">Models diagram</text>
<text text-anchor="start" x="8" y="-618.8" font-family="Times Roman,serif" font-size="13.00">Date: Aug 31 2014 &#45; 09:42</text>
<text text-anchor="start" x="8" y="-601.8" font-family="Times Roman,serif" font-size="13.00">Migration version: 20140831013149</text>
<text text-anchor="start" x="8" y="-584.8" font-family="Times Roman,serif" font-size="13.00">Generated by RailRoady 1.1.2</text>
<text text-anchor="start" x="8" y="-567.8" font-family="Times Roman,serif" font-size="13.00">http://railroady.prestonlee.com</text>
</g>
<!-- Cost -->
<g id="node2" class="node"><title>Cost</title>
<polyline fill="none" stroke="black" points="265.5,-1 406.5,-1 "/>
<path fill="none" stroke="black" d="M406.5,-1C412.5,-1 418.5,-7 418.5,-13"/>
<polyline fill="none" stroke="black" points="418.5,-13 418.5,-149 "/>
<path fill="none" stroke="black" d="M418.5,-149C418.5,-155 412.5,-161 406.5,-161"/>
<polyline fill="none" stroke="black" points="406.5,-161 265.5,-161 "/>
<path fill="none" stroke="black" d="M265.5,-161C259.5,-161 253.5,-155 253.5,-149"/>
<polyline fill="none" stroke="black" points="253.5,-149 253.5,-13 "/>
<path fill="none" stroke="black" d="M253.5,-13C253.5,-7 259.5,-1 265.5,-1"/>
<text text-anchor="middle" x="336" y="-144.4" font-family="Times Roman,serif" font-size="14.00">Cost</text>
<polyline fill="none" stroke="black" points="253.5,-135 418.5,-135 "/>
<text text-anchor="start" x="261.5" y="-118.4" font-family="Times Roman,serif" font-size="14.00">id :integer</text>
<text text-anchor="start" x="261.5" y="-100.4" font-family="Times Roman,serif" font-size="14.00">procedure_id :integer</text>
<text text-anchor="start" x="261.5" y="-82.4" font-family="Times Roman,serif" font-size="14.00">practice_id :integer</text>
<text text-anchor="start" x="261.5" y="-64.4" font-family="Times Roman,serif" font-size="14.00">cost :float</text>
<text text-anchor="start" x="261.5" y="-46.4" font-family="Times Roman,serif" font-size="14.00">shown :boolean</text>
<text text-anchor="start" x="261.5" y="-28.4" font-family="Times Roman,serif" font-size="14.00">created_at :datetime</text>
<text text-anchor="start" x="261.5" y="-10.4" font-family="Times Roman,serif" font-size="14.00">updated_at :datetime</text>
</g>
<!-- Practice -->
<g id="node3" class="node"><title>Practice</title>
<polyline fill="none" stroke="black" points="301.5,-361 442.5,-361 "/>
<path fill="none" stroke="black" d="M442.5,-361C448.5,-361 454.5,-367 454.5,-373"/>
<polyline fill="none" stroke="black" points="454.5,-373 454.5,-509 "/>
<path fill="none" stroke="black" d="M454.5,-509C454.5,-515 448.5,-521 442.5,-521"/>
<polyline fill="none" stroke="black" points="442.5,-521 301.5,-521 "/>
<path fill="none" stroke="black" d="M301.5,-521C295.5,-521 289.5,-515 289.5,-509"/>
<polyline fill="none" stroke="black" points="289.5,-509 289.5,-373 "/>
<path fill="none" stroke="black" d="M289.5,-373C289.5,-367 295.5,-361 301.5,-361"/>
<text text-anchor="middle" x="372" y="-504.4" font-family="Times Roman,serif" font-size="14.00">Practice</text>
<polyline fill="none" stroke="black" points="289.5,-495 454.5,-495 "/>
<text text-anchor="start" x="297.5" y="-478.4" font-family="Times Roman,serif" font-size="14.00">id :integer</text>
<text text-anchor="start" x="297.5" y="-460.4" font-family="Times Roman,serif" font-size="14.00">name :string</text>
<text text-anchor="start" x="297.5" y="-442.4" font-family="Times Roman,serif" font-size="14.00">address :text</text>
<text text-anchor="start" x="297.5" y="-424.4" font-family="Times Roman,serif" font-size="14.00">zipcode :integer</text>
<text text-anchor="start" x="297.5" y="-406.4" font-family="Times Roman,serif" font-size="14.00">shown :boolean</text>
<text text-anchor="start" x="297.5" y="-388.4" font-family="Times Roman,serif" font-size="14.00">created_at :datetime</text>
<text text-anchor="start" x="297.5" y="-370.4" font-family="Times Roman,serif" font-size="14.00">updated_at :datetime</text>
</g>
<!-- Practice&#45;&gt;Cost -->
<g id="edge4" class="edge"><title>Practice&#45;&gt;Cost</title>
<path fill="none" stroke="#30a0ba" d="M358.539,-352.73C357.252,-343.046 356.041,-333.323 355,-324 349.37,-273.563 344.845,-217.052 341.626,-171.228"/>
<ellipse fill="none" stroke="#30a0ba" cx="359.1" cy="-356.881" rx="4.00001" ry="4.00001"/>
<polygon fill="#30a0ba" stroke="#30a0ba" points="341.61,-170.997 345.407,-160.71 341.264,-166.009 340.918,-161.021 340.918,-161.021 340.918,-161.021 341.264,-166.009 336.429,-161.333 341.61,-170.997 341.61,-170.997"/>
</g>
<!-- Procedure -->
<g id="node4" class="node"><title>Procedure</title>
<polyline fill="none" stroke="black" points="375.5,-199 516.5,-199 "/>
<path fill="none" stroke="black" d="M516.5,-199C522.5,-199 528.5,-205 528.5,-211"/>
<polyline fill="none" stroke="black" points="528.5,-211 528.5,-311 "/>
<path fill="none" stroke="black" d="M528.5,-311C528.5,-317 522.5,-323 516.5,-323"/>
<polyline fill="none" stroke="black" points="516.5,-323 375.5,-323 "/>
<path fill="none" stroke="black" d="M375.5,-323C369.5,-323 363.5,-317 363.5,-311"/>
<polyline fill="none" stroke="black" points="363.5,-311 363.5,-211 "/>
<path fill="none" stroke="black" d="M363.5,-211C363.5,-205 369.5,-199 375.5,-199"/>
<text text-anchor="middle" x="446" y="-306.4" font-family="Times Roman,serif" font-size="14.00">Procedure</text>
<polyline fill="none" stroke="black" points="363.5,-297 528.5,-297 "/>
<text text-anchor="start" x="371.5" y="-280.4" font-family="Times Roman,serif" font-size="14.00">id :integer</text>
<text text-anchor="start" x="371.5" y="-262.4" font-family="Times Roman,serif" font-size="14.00">name :string</text>
<text text-anchor="start" x="371.5" y="-244.4" font-family="Times Roman,serif" font-size="14.00">shown :boolean</text>
<text text-anchor="start" x="371.5" y="-226.4" font-family="Times Roman,serif" font-size="14.00">created_at :datetime</text>
<text text-anchor="start" x="371.5" y="-208.4" font-family="Times Roman,serif" font-size="14.00">updated_at :datetime</text>
</g>
<!-- Practice&#45;&gt;Procedure -->
<g id="edge6" class="edge"><title>Practice&#45;&gt;Procedure</title>
<path fill="none" stroke="#b4a865" d="M408.912,-351.214C411.486,-344.952 414.061,-338.689 416.587,-332.545"/>
<polygon fill="#b4a865" stroke="#b4a865" points="408.799,-351.49 400.834,-359.028 406.897,-356.114 404.996,-360.739 404.996,-360.739 404.996,-360.739 406.897,-356.114 409.158,-362.45 408.799,-351.49 408.799,-351.49"/>
<polygon fill="#b4a865" stroke="#b4a865" points="416.706,-332.256 424.67,-324.718 418.607,-327.632 420.508,-323.007 420.508,-323.007 420.508,-323.007 418.607,-327.632 416.346,-321.296 416.706,-332.256 416.706,-332.256"/>
</g>
<!-- Procedure&#45;&gt;Cost -->
<g id="edge10" class="edge"><title>Procedure&#45;&gt;Cost</title>
<path fill="none" stroke="#ba02c6" d="M403.79,-191.928C399.387,-184.724 394.869,-177.331 390.357,-169.947"/>
<ellipse fill="none" stroke="#ba02c6" cx="405.904" cy="-195.389" rx="4.00002" ry="4.00002"/>
<polygon fill="#ba02c6" stroke="#ba02c6" points="390.284,-169.828 388.909,-158.949 387.677,-165.562 385.069,-161.295 385.069,-161.295 385.069,-161.295 387.677,-165.562 381.23,-163.642 390.284,-169.828 390.284,-169.828"/>
</g>
<!-- ActiveRecord::Base -->
<g id="node5" class="node"><title>ActiveRecord::Base</title>
<ellipse fill="none" stroke="black" cx="372" cy="-605" rx="104.151" ry="18.3848"/>
<text text-anchor="middle" x="372" y="-601.4" font-family="Times Roman,serif" font-size="14.00">ActiveRecord::Base</text>
</g>
<!-- ActiveRecord::Base&#45;&gt;Cost -->
<g id="edge2" class="edge"><title>ActiveRecord::Base&#45;&gt;Cost</title>
<path fill="none" stroke="black" d="M341.679,-587.113C320.295,-572.594 293.347,-549.974 281,-522 228.97,-404.122 268.228,-252.37 301.814,-161.101"/>
</g>
<!-- ActiveRecord::Base&#45;&gt;Practice -->
<g id="edge8" class="edge"><title>ActiveRecord::Base&#45;&gt;Practice</title>
<path fill="none" stroke="black" d="M372,-586.187C372,-570.033 372,-545.578 372,-521.318"/>
</g>
<!-- ActiveRecord::Base&#45;&gt;Procedure -->
<g id="edge12" class="edge"><title>ActiveRecord::Base&#45;&gt;Procedure</title>
<path fill="none" stroke="black" d="M402.321,-587.113C423.705,-572.594 450.653,-549.974 463,-522 491.008,-458.545 479.54,-377.892 465.734,-323.155"/>
</g>
</g>
</svg>
